<svg width="24" height="24" viewBox="0 0 24 24" fill="none" xmlns="http://www.w3.org/2000/svg">
<path d="M18 6H8.28754C8.08862 6 7.89786 5.92098 7.75721 5.78033C7.61655 5.63968 7.53754 5.44891 7.53754 5.25C7.53754 5.05109 7.61655 4.86032 7.75721 4.71967C7.89786 4.57902 8.08862 4.5 8.28754 4.5H18.75C18.9489 4.5 19.1397 4.57902 19.2804 4.71967C19.421 4.86032 19.5 5.05109 19.5 5.25V15.75C19.5 15.9489 19.421 16.1397 19.2804 16.2803C19.1397 16.421 18.9489 16.5 18.75 16.5C18.5511 16.5 18.3604 16.421 18.2197 16.2803C18.0791 16.1397 18 15.9489 18 15.75V6Z" fill="black"/>
<path d="M18.219 4.71897C18.3599 4.57814 18.5509 4.49902 18.75 4.49902C18.9492 4.49902 19.1402 4.57814 19.281 4.71897C19.4219 4.8598 19.501 5.05081 19.501 5.24997C19.501 5.44913 19.4219 5.64014 19.281 5.78097L6.53103 18.531C6.4613 18.6007 6.37852 18.656 6.28741 18.6938C6.1963 18.7315 6.09865 18.7509 6.00003 18.7509C5.90142 18.7509 5.80377 18.7315 5.71266 18.6938C5.62155 18.656 5.53876 18.6007 5.46903 18.531C5.3993 18.4612 5.34399 18.3785 5.30625 18.2873C5.26851 18.1962 5.24908 18.0986 5.24908 18C5.24908 17.9014 5.26851 17.8037 5.30625 17.7126C5.34399 17.6215 5.3993 17.5387 5.46903 17.469L18.219 4.71897Z" fill="black"/>
</svg>
